<?xml version="1.0" encoding="UTF-8" standalone="no"?>
<!-- Created with Inkscape (http://www.inkscape.org/) -->

<svg
  width="500mm"
  height="500mm"
  viewBox="0 0 500 500"
  version="1.1"
  id="svg5"
  inkscape:version="1.2.1 (9c6d41e410, 2022-07-14)"
  sodipodi:docname="rock.svg"
  inkscape:export-filename="rock.webp"
  inkscape:export-xdpi="96"
  inkscape:export-ydpi="96"
  xmlns:inkscape="http://www.inkscape.org/namespaces/inkscape"
  xmlns:sodipodi="http://sodipodi.sourceforge.net/DTD/sodipodi-0.dtd"
  xmlns:xlink="http://www.w3.org/1999/xlink"
  xmlns="http://www.w3.org/2000/svg"
  xmlns:svg="http://www.w3.org/2000/svg"
>
  <sodipodi:namedview
    id="namedview7"
    pagecolor="#ffffff"
    bordercolor="#666666"
    borderopacity="1.0"
    inkscape:pageshadow="2"
    inkscape:pageopacity="0.0"
    inkscape:pagecheckerboard="0"
    inkscape:document-units="mm"
    showgrid="false"
    inkscape:showpageshadow="2"
    inkscape:deskcolor="#d1d1d1"
    inkscape:zoom="0.21933958"
    inkscape:cx="843.44101"
    inkscape:cy="838.88187"
    inkscape:window-width="1920"
    inkscape:window-height="1009"
    inkscape:window-x="1912"
    inkscape:window-y="-8"
    inkscape:window-maximized="1"
    inkscape:current-layer="layer1"
  />
  <defs
    id="defs2"
  >
    <linearGradient
      inkscape:collect="always"
      id="linearGradient1137"
    >
      <stop
        style="stop-color: #6b6b6b; stop-opacity: 1"
        offset="0"
        id="stop1133"
      />
      <stop
        style="stop-color: #a9a9a9; stop-opacity: 0"
        offset="1"
        id="stop1135"
      />
    </linearGradient>
    <linearGradient
      inkscape:collect="always"
      id="linearGradient1131"
    >
      <stop
        style="stop-color: #6b6b6b; stop-opacity: 1"
        offset="0"
        id="stop1127"
      />
      <stop
        style="stop-color: #a9a9a9; stop-opacity: 0"
        offset="1"
        id="stop1129"
      />
    </linearGradient>
    <linearGradient
      inkscape:collect="always"
      id="linearGradient1031"
    >
      <stop
        style="stop-color: #525252; stop-opacity: 1"
        offset="0"
        id="stop1027"
      />
      <stop
        style="stop-color: #a9a9a9; stop-opacity: 0"
        offset="1"
        id="stop1029"
      />
    </linearGradient>
    <radialGradient
      inkscape:collect="always"
      xlink:href="#linearGradient1031"
      id="radialGradient1033"
      cx="208.02522"
      cy="220.06459"
      fx="208.02522"
      fy="220.06459"
      r="83.593528"
      gradientTransform="matrix(1,0,0,0.77548139,4.8250905,25.283143)"
      gradientUnits="userSpaceOnUse"
    />
    <radialGradient
      inkscape:collect="always"
      xlink:href="#linearGradient1137"
      id="radialGradient1033-5"
      cx="208.02522"
      cy="220.06459"
      fx="208.02522"
      fy="220.06459"
      r="83.593529"
      gradientTransform="matrix(1,0,0,0.77548139,27.392721,204.64796)"
      gradientUnits="userSpaceOnUse"
    />
    <radialGradient
      inkscape:collect="always"
      xlink:href="#linearGradient1131"
      id="radialGradient1033-50"
      cx="208.02522"
      cy="220.06459"
      fx="208.02522"
      fy="220.06459"
      r="83.593529"
      gradientTransform="matrix(1,0,0,0.77548139,74.24258,111.6118)"
      gradientUnits="userSpaceOnUse"
    />
  </defs>
  <g
    inkscape:label="Layer 1"
    inkscape:groupmode="layer"
    id="layer1"
  >
    <path
      style="font-variation-settings: normal; opacity: 1; vector-effect: none; fill: #a9a9a9; fill-opacity: 1; stroke: #000000; stroke-width: 13.4666; stroke-linecap: butt; stroke-linejoin: miter; stroke-miterlimit: 4; stroke-dasharray: none; stroke-dashoffset: 0; stroke-opacity: 1; -inkscape-stroke: none; stop-color: #000000; stop-opacity: 1"
      d="M 29.471903,254.99497 66.143694,171.92903 C 66.143694,171.92903 133.74654,82.472629 148.9382,78.998596 164.12984,75.524561 194.51316,73.787543 211.22398,75.524561 227.93477,77.261578 259.50147,78.079132 300.09513,119.8185 339.43174,160.26534 344.78192,178.14344 370.99828,173.32405 402.41425,167.54881 389.01644,166.21851 435.30083,112.87044 454.20396,91.082415 489.99078,116.34446 477.83747,168.45499 465.68413,220.56552 479.5183,218.8285 467.365,251.83184 455.21165,284.83517 477.83747,241.40973 438.33916,315.23297 398.84085,389.05624 358.58298,435.08718 300.09513,451.58883 241.60728,468.09053 218.8198,475.9071 179.3215,468.09053 139.8232,460.27392 152.73611,489.80322 112.47823,443.77226 72.220354,397.74132 47.913714,387.3192 39.558305,341.28824 31.202895,295.25727 29.471903,254.99497 29.471903,254.99497 Z"
      id="path242"
      sodipodi:nodetypes="ccssssssssssssc"
    />
    <path
      style="font-variation-settings: normal; opacity: 1; vector-effect: none; fill: url(#radialGradient1033); fill-opacity: 1; stroke: none; stroke-width: 10; stroke-linecap: butt; stroke-linejoin: miter; stroke-miterlimit: 4; stroke-dasharray: none; stroke-dashoffset: 0; stroke-opacity: 1; -inkscape-stroke: none; stop-color: #000000; stop-opacity: 1"
      d="M 148.12296,175.46802 230.00746,131.11391 284.59712,182.29172 C 284.59712,182.29172 301.65639,221.52805 294.83268,226.64583 288.00897,231.76361 228.30154,260.76436 212.94819,260.76436 197.59485,260.76436 131.06369,241.99918 129.35777,228.35176 127.65184,214.70434 148.12296,175.46802 148.12296,175.46802 Z"
      id="path1002"
    />
    <path
      style="font-variation-settings: normal; vector-effect: none; fill: url(#radialGradient1033-5); fill-opacity: 1; stroke: none; stroke-width: 10; stroke-linecap: butt; stroke-linejoin: miter; stroke-miterlimit: 4; stroke-dasharray: none; stroke-dashoffset: 0; stroke-opacity: 1; -inkscape-stroke: none; stop-color: #000000"
      d="M 170.69059,354.83284 252.57509,310.47873 307.16475,361.65654 C 307.16475,361.65654 324.22402,400.89287 317.40031,406.01065 310.5766,411.12843 250.86917,440.12918 235.51582,440.12918 220.16248,440.12918 153.63132,421.364 151.9254,407.71658 150.21947,394.06916 170.69059,354.83284 170.69059,354.83284 Z"
      id="path1002-3"
    />
    <path
      style="font-variation-settings: normal; vector-effect: none; fill: url(#radialGradient1033-50); fill-opacity: 1; stroke: none; stroke-width: 10; stroke-linecap: butt; stroke-linejoin: miter; stroke-miterlimit: 4; stroke-dasharray: none; stroke-dashoffset: 0; stroke-opacity: 1; -inkscape-stroke: none; stop-color: #000000"
      d="M 217.54045,261.79668 299.42495,217.44257 354.01461,268.62038 C 354.01461,268.62038 371.07388,307.85671 364.25017,312.97449 357.42646,318.09227 297.71903,347.09302 282.36568,347.09302 267.01234,347.09302 200.48118,328.32784 198.77526,314.68042 197.06933,301.033 217.54045,261.79668 217.54045,261.79668 Z"
      id="path1002-8"
    />
  </g>
</svg>
