<svg
    width="100px"
    height="100px"
    viewBox="0 0 500 500"
    xmlns="http://www.w3.org/2000/svg"
>
    <g>
        <path
            id="star"
            d="M 284.38662,260.22305
    C 277.42504,271.87506 184.11979,245.83895 171.63888,251.17371 159.15797,256.50846 113.49879,341.94258 100.26582,338.9224 87.032862,335.90221 82.961763,239.11804 74.031295,228.89652 65.100825,218.675 -30.261313,201.65113 -31.478154,188.13255 -32.694995,174.61396 58.094178,140.83417 65.055757,129.18216 72.017337,117.53016 58.739475,21.574709 71.220387,16.239952 83.701299,10.905196 143.88319,86.812299 157.11615,89.832487 170.34912,92.852675 257.50508,50.572814 266.43555,60.794336 275.36602,71.015858 221.77131,151.70883 222.98815,165.22741 224.20499,178.74599 291.3482,248.57105 284.38662,260.22305
    Z"
        />
    </g>
    <style>
        #star {
            animation: 2s linear 0.5s infinite forwards move-anim;
        }

        @keyframes move-anim {
            from {
                translate: 0% 50%;
            }
            to {
                translate: 30% -50%;
            }
        }
    </style>
</svg>
